<?xml version="1.0" encoding="UTF-8" standalone="no"?>
<!-- Created with Inkscape (http://www.inkscape.org/) -->

<svg
   width="23.495001mm"
   height="23.9014mm"
   viewBox="0 0 23.495001 23.9014"
   version="1.1"
   id="svg1"
   xmlns="http://www.w3.org/2000/svg"
   xmlns:svg="http://www.w3.org/2000/svg">
  <defs
     id="defs1" />
  <g
     id="layer1"
     transform="translate(-70.608966,-67.089535)">
    <g
       id="g1"
       transform="matrix(0.78410337,0,0,0.78410337,17.780483,17.06452)">
      <path
         style="font-weight:bold;font-size:25.4px;font-family:'shanggu serif sc';-inkscape-font-specification:'shanggu serif sc';fill:#22c55e;fill-opacity:1;stroke-width:1.6;stroke-linecap:round;stroke-linejoin:bevel;stroke-dasharray:1.6, 3.2"
         d="m 73.580766,69.146935 c 0.0762,1.4478 -0.9144,2.8956 -1.7526,3.4544 -0.8128,0.4572 -1.3208,1.2446 -0.9398,2.1844 0.4318,1.016 1.8288,1.1938 2.5908,0.5334 0.7366,-0.635 1.2192,-1.8288 1.0922,-3.4798 h 15.367 c -0.2794,0.8382 -0.6604,1.8542 -0.9906,2.54 l 0.2286,0.1778 c 1.27,-0.508 2.9464,-1.4224 3.9116,-2.1336 0.5334,-0.0508 0.7874,-0.1016 1.016,-0.3048 l -2.6924,-2.5654 -1.5494,1.5494 h -6.096 v -2.9718 c 0.6858,-0.127 0.889,-0.381 0.9144,-0.7366 l -3.9878,-0.3048 v 4.0132 h -6.1976 c -0.127,-0.6096 -0.3048,-1.2446 -0.5842,-1.9558 z"
         id="path1" />
      <path
         style="font-weight:bold;font-size:25.4px;font-family:'shanggu serif sc';-inkscape-font-specification:'shanggu serif sc';fill:#eab308;fill-opacity:1;stroke-width:1.6;stroke-linecap:round;stroke-linejoin:bevel;stroke-dasharray:1.6, 3.2"
         d="m 80.692766,78.062335 v 3.0988 h -10.0838 l 0.2032,0.7366 h 9.8806 v 5.3594 c 0,0.3302 -0.1524,0.4572 -0.5842,0.4572 -0.6096,0 -4.0894,-0.2032 -4.0894,-0.2032 v 0.3302 c 1.5748,0.254 2.2098,0.5842 2.7432,1.0414 0.508,0.4572 0.6604,1.143 0.7874,2.1082 3.683,-0.3302 4.2164,-1.4986 4.2164,-3.5814 v -5.5118 h 9.6012 c 0.3556,0 0.635,-0.127 0.7112,-0.4064 -1.1176,-0.9906 -2.921,-2.4384 -2.921,-2.4384 l -1.6256,2.1082 h -5.7658 v -2.1082 c 0.5588,-0.0762 0.8128,-0.2794 0.889,-0.6604 l -0.2032,-0.0254 c 1.651,-0.6604 3.302,-1.5748 4.6228,-2.413 0.5334,-0.0508 0.8128,-0.1016 1.016,-0.3302 l -2.7686,-2.413 -1.6256,1.6256 h -10.541 l 0.2032,0.7112 h 10.16 c -0.5842,0.8636 -1.4478,1.905 -2.286,2.7178 z"
         id="text1" />
    </g>
  </g>
</svg>
